<svg id="icone_lojas" xmlns="http://www.w3.org/2000/svg" xmlns:xlink="http://www.w3.org/1999/xlink" width="24" height="24" viewBox="0 0 24 24">
  <defs>
    <clipPath id="clip-path">
      <rect id="Ret창ngulo_4246" data-name="Ret창ngulo 4246" width="24" height="24" fill="#fb637e"/>
    </clipPath>
  </defs>
  <g id="Grupo_23266" data-name="Grupo 23266" clip-path="url(#clip-path)">
    <g id="Grupo_23263" data-name="Grupo 23263">
      <g id="Grupo_23262" data-name="Grupo 23262" clip-path="url(#clip-path)">
        <g id="Grupo_23261" data-name="Grupo 23261" opacity="0">
          <g id="Grupo_23260" data-name="Grupo 23260">
            <g id="Grupo_23259" data-name="Grupo 23259" clip-path="url(#clip-path)">
              <rect id="Ret창ngulo_4242" data-name="Ret창ngulo 4242" width="24" height="24" fill="#fb637e"/>
            </g>
          </g>
        </g>
      </g>
    </g>
    <g id="Grupo_23265" data-name="Grupo 23265">
      <g id="Grupo_23264" data-name="Grupo 23264" clip-path="url(#clip-path)">
        <path id="Caminho_7300" data-name="Caminho 7300" d="M4.148,11.421a3.683,3.683,0,0,0,.652.3V20a.8.8,0,0,0,.8.8H18.4a.8.8,0,0,0,.8-.8V11.72a3.586,3.586,0,0,0,.653-.3l.559-.336A.8.8,0,0,0,20.8,10.4V7.2a.8.8,0,0,0-.8-.8h-.8V4a.8.8,0,0,0-.8-.8H5.6a.8.8,0,0,0-.8.8V6.4H4a.8.8,0,0,0-.8.8v3.2a.8.8,0,0,0,.389.686ZM10.8,16h2.4v3.2H10.8Zm4,3.2v-4a.8.8,0,0,0-.8-.8H10a.8.8,0,0,0-.8.8v4H6.4V11.909a3.6,3.6,0,0,0,1.453-.488L8,11.333l.148.088a3.592,3.592,0,0,0,3.7,0L12,11.333l.148.088a3.592,3.592,0,0,0,3.7,0L16,11.333l.148.088a3.59,3.59,0,0,0,1.453.488V19.2ZM6.4,4.8H17.6V6.4H6.4ZM4.8,8H19.2V9.947l-.171.1a1.993,1.993,0,0,1-2.058,0l-.559-.336a.8.8,0,0,0-.824,0l-.559.336a1.993,1.993,0,0,1-2.058,0l-.559-.336a.8.8,0,0,0-.824,0l-.559.336a1.993,1.993,0,0,1-2.058,0l-.559-.336a.8.8,0,0,0-.824,0l-.559.336a1.993,1.993,0,0,1-2.058,0l-.171-.1Z" fill="#fb637e"/>
      </g>
    </g>
  </g>
</svg>
